DataType=double
version=3
OpenSimVersion=4.3-2021-07-13-51ee73d
endheader
time	ground_force_r_vx	ground_force_r_vy	ground_force_r_vz	ground_force_r_px	ground_force_r_py	ground_force_r_pz	ground_force_l_vx	ground_force_l_vy	ground_force_l_vz	ground_force_l_px	ground_force_l_py	ground_force_l_pz	ground_torque_r_x	ground_torque_r_y	ground_torque_r_z	ground_torque_l_x	ground_torque_l_y	ground_torque_l_z
1.784	-8.203252387170513	100.2299567530443	0	0	0	0	0	0	0	0	0	0	0	0	16.0830105522106	0	0	0
1.787661202829023	40.18110227105537	241.3751101468206	0	0	0	0	-2.470714543080058e-22	-2.643187846605148e-22	0	0	0	0	0	0	42.85543104937347	0	0	-8.155502735457865e-23
1.791322405658045	-14.91375299137233	431.7597338913578	0	0	0	0	1.400265764563898e-20	-2.396668138282738e-20	0	0	0	0	0	0	75.73954749939729	0	0	1.201246330024638e-22
1.794983608487068	-7.906500359711822	530.401176519429	0	0	0	0	9.369537023713674e-19	-8.640896402848093e-19	0	0	0	0	0	0	91.06239829169868	0	0	9.699657667529757e-20
1.798644811316091	8.720248188936907	614.1739553193852	0	0	0	0	8.615683534271234e-19	-7.406343713200464e-19	0	0	0	0	0	0	103.9678070820341	0	0	9.784162407717534e-20
1.802306014145113	-14.79617206834525	682.5625922413005	0	0	0	0	9.521651623598571e-20	-7.999318217456749e-20	0	0	0	0	0	0	113.6909611058987	0	0	1.130132361162771e-20
1.805967216974136	-18.65674830391023	719.2912299603122	0	0	0	0	1.372348922905345e-20	-1.092973188871376e-20	0	0	0	0	0	0	118.1559545495188	0	0	1.734980370533881e-21
1.809628419803158	-35.12287797509462	767.1644878062823	0	0	0	0	1.82228477146844e-21	-1.369860443272533e-21	0	0	0	0	0	0	124.5418045087998	0	0	2.44099218113087e-22
1.813289622632181	-52.37548414987844	803.0006292709625	0	0	0	0	1.28124596894846e-22	-9.252822508601873e-23	0	0	0	0	0	0	129.1040425639951	0	0	1.788357621255112e-23
1.816950825461204	-68.09985999824121	834.4745089415926	0	0	0	0	3.614994746416096e-23	-2.502242096593419e-23	0	0	0	0	0	0	133.0520662376556	0	0	5.24508825349011e-24
1.820612028290227	-85.68720204321934	863.0994741986575	0	0	0	0	3.655622659657483e-22	-2.379366246787862e-22	0	0	0	0	0	0	135.8542427887833	0	0	5.539725574848267e-23
1.824273231119249	-95.81244268281812	905.1143081379461	0	0	0	0	2.560318726959836e-20	-1.56120114234629e-20	0	0	0	0	0	0	140.7625299559889	0	0	4.033989975746551e-21
1.827934433948272	-110.5742534550619	944.187916442001	0	0	0	0	1.887956773548502e-18	-1.088032759625393e-18	0	0	0	0	0	0	145.2097802801954	0	0	3.065745200971959e-19
1.831595636777294	-114.8707558270044	989.7475429257395	0	0	0	0	1.814720090195225e-16	-9.929465085192356e-17	0	0	0	0	0	0	151.1840447723364	0	0	3.020107793732523e-17
1.835256839606317	-121.2549905246484	1037.200385608435	0	0	0	0	2.702323369406565e-15	-1.405370067054815e-15	0	0	0	0	0	0	157.1612574588545	0	0	4.591690432728345e-16
1.83891804243534	-123.0466203953076	1086.930107935341	0	0	0	0	0	0	0	0	0	0	0	0	163.1479373736749	0	0	0
1.842579245264362	-124.4155014743266	1140.947700462487	0	0	0	0	0	0	0	0	0	0	0	0	169.1385191357457	0	0	0
1.846240448093385	-120.4023180628712	1191.491489673655	0	0	0	0	0	0	0	0	0	0	0	0	174.2331160864707	0	0	0
1.849901650922408	-117.5868001690418	1237.328242603763	0	0	0	0	0	0	0	0	0	0	0	0	178.8309356379542	0	0	0
1.85356285375143	-112.9491055045786	1280.600449582016	0	0	0	0	0	0	0	0	0	0	0	0	183.1671719592952	0	0	0
1.857224056580453	-107.6533880274329	1324.130726239053	0	0	0	0	0	0	0	0	0	0	0	0	187.2002849935825	0	0	0
1.860885259409475	-101.6896678635533	1359.789446050776	0	0	0	0	0	0	0	0	0	0	0	0	189.7999152738389	0	0	0
1.864546462238498	-96.10995445226092	1389.410971880448	0	0	0	0	0	0	0	0	0	0	0	0	191.6945267923556	0	0	0
1.868207665067521	-89.35446188587218	1414.929745336123	0	0	0	0	0	0	0	0	0	0	0	0	193.4111791845318	0	0	0
1.871868867896543	-84.16065595031739	1433.729055174063	0	0	0	0	-8.372073226999957e-13	3.264338407096051e-13	0	0	0	0	0	0	194.5117722466193	0	0	-1.463034371132239e-13
1.875530070725566	-76.92547491450502	1451.937539704421	0	0	0	0	-8.811892776655583e-13	3.392693018205429e-13	0	0	0	0	0	0	196.0182049403236	0	0	-1.528241226291661e-13
1.879191273554589	-71.40637948619377	1466.71034289791	0	0	0	0	-1.784612916432297e-12	6.803432626801367e-13	0	0	0	0	0	0	197.1908528243414	0	0	-3.067077467563368e-13
1.882852476383611	-64.31058052748745	1473.166147712604	0	0	0	0	-2.669950345746268e-12	1.008811320406741e-12	0	0	0	0	0	0	197.2531104789983	0	0	-4.543398399091513e-13
1.886513679212634	-58.4131593251602	1474.757538274201	0	0	0	0	-4.457162977166323e-12	1.667817575177895e-12	0	0	0	0	0	0	196.7978668342434	0	0	-7.506204447122197e-13
1.890174882041657	-50.26771210962281	1476.454632299008	0	0	0	0	-7.208117971168864e-12	2.666961903484423e-12	0	0	0	0	0	0	196.7691869083508	0	0	-1.200770829965822e-12
1.893836084870679	-44.24297328515222	1474.29460878968	0	0	0	0	-1.475794345698093e-11	5.386750094573359e-12	0	0	0	0	0	0	196.4144111659402	0	0	-2.430614180953796e-12
1.897497287699702	-38.29198883642592	1465.947451447561	0	0	0	0	-3.123146517336797e-11	1.119854742612909e-11	0	0	0	0	0	0	195.0993886050697	0	0	-5.083645268150987e-12
1.901158490528724	-32.73188114067836	1455.772247991161	0	0	0	0	-8.194517481253819e-11	2.869351580704133e-11	0	0	0	0	0	0	193.4034691305604	0	0	-1.317191686235424e-11
1.904819693357747	-21.92066352990145	1443.488607553611	0	0	0	0	-2.293950958186812e-10	7.893562971173773e-11	0	0	0	0	0	0	192.7194540366237	0	0	-3.624255589905632e-11
1.90848089618677	-18.72455759476759	1416.559385483187	0	0	0	0	-5.236436499210872e-10	1.802445028387673e-10	0	0	0	0	0	0	191.5316230215929	0	0	-8.082426522835577e-11
1.912142099015792	-8.225877161944256	1395.347137629177	0	0	0	0	-9.525337057137531e-10	3.284554200194899e-10	0	0	0	0	0	0	192.5007550409517	0	0	-1.436716186470533e-10
1.915803301844815	-2.016347669004797	1373.803077157335	0	0	0	0	-1.877721878704079e-09	6.391876745811541e-10	0	0	0	0	0	0	193.7740893947945	0	0	-2.777875984188054e-10
1.919464504673838	7.035006920278	1343.237188097009	0	0	0	0	-4.034965330511646e-09	1.353576014668765e-09	0	0	0	0	0	0	193.960424855925	0	0	-5.843010887855899e-10
1.92312570750286	13.56240473063092	1310.867488677373	0	0	0	0	-7.610781586839973e-09	2.543143157987337e-09	0	0	0	0	0	0	194.1433373154614	0	0	-1.073309984276e-09
1.926786910331883	26.67602789386281	1284.442999949078	0	0	0	0	-1.261014392564905e-08	4.202467965778303e-09	0	0	0	0	0	0	196.803579629337	0	0	-1.730241860395459e-09
1.930448113160906	31.64188781843226	1249.106477288885	0	0	0	0	-2.192566416925947e-08	7.22903697923801e-09	0	0	0	0	0	0	199.6422610311567	0	0	-2.93085406015152e-09
1.934109315989928	41.2519598565952	1210.868450521263	0	0	0	0	-3.89352622079724e-08	1.269962207674033e-08	0	0	0	0	0	0	201.8903440227265	0	0	-5.057006066033503e-09
1.937770518818951	53.09086002816965	1183.312005744298	0	0	0	0	-5.937186293747412e-08	1.930702789129678e-08	0	0	0	0	0	0	204.6969208433428	0	0	-7.457697637595755e-09
1.941431721647974	56.57060568374084	1133.198147513244	0	0	0	0	-7.934871938281005e-08	2.574341622569517e-08	0	0	0	0	0	0	202.6016041456341	0	0	-9.628656134815384e-09
1.945092924476996	68.33238334308169	1096.416319754322	0	0	0	0	-1.120230540602967e-07	3.603111574985128e-08	0	0	0	0	0	0	200.3938291495595	0	0	-1.314068118681798e-08
1.948754127306019	71.68461480785568	1055.447814599819	0	0	0	0	-1.636028896870488e-07	5.211729061526375e-08	0	0	0	0	0	0	195.7808023146524	0	0	-1.849811125891223e-08
1.952415330135042	76.97342911065745	1011.009743823968	0	0	0	0	-2.132443587717087e-07	6.757265986518772e-08	0	0	0	0	0	0	190.2610914407001	0	0	-2.312927907836484e-08
1.956076532964064	81.05528702617491	966.4798535867009	0	0	0	0	-2.43190605398688e-07	7.680692684425423e-08	0	0	0	0	0	0	184.324644987005	0	0	-2.522734961687598e-08
1.959737735793087	85.65483583933374	919.3227574202717	0	0	0	0	-2.561936590077877e-07	8.061306309521975e-08	0	0	0	0	0	0	177.5983654113423	0	0	-2.536342696503483e-08
1.963398938622109	88.5492645985197	872.2345573411636	0	0	0	0	-2.520134669317947e-07	7.902462013785157e-08	0	0	0	0	0	0	170.538401950535	0	0	-2.373964680972372e-08
1.967060141451132	90.77095163668692	822.941674937888	0	0	0	0	-2.317947526532022e-07	7.250307562688237e-08	0	0	0	0	0	0	162.7804126589591	0	0	-2.069757101440553e-08
1.970721344280155	93.87882471160984	777.2759739973255	0	0	0	0	-1.989955430957848e-07	6.215074458597149e-08	0	0	0	0	0	0	155.4023187486134	0	0	-1.677139848371574e-08
